<svg width="33" height="34" viewBox="0 0 33 34" fill="none" xmlns="http://www.w3.org/2000/svg">
<path d="M29.0007 4.58268C27.912 6.14125 26.5538 7.49287 24.9899 8.57389C24.891 11.3077 24.093 13.9706 22.672 16.3083C21.2511 18.6459 19.2547 20.5804 16.8734 21.9269C14.4921 23.2735 11.8054 23.9872 9.06982 24C6.3342 24.0127 3.64098 23.324 1.24725 21.9997L1.24807 21.9982C4.37387 21.9549 7.41777 20.9924 10.0002 19.2307C7.23581 17.3466 5.13028 14.6447 3.97896 11.5037C2.82764 8.36269 2.68817 4.94011 3.58008 1.71582C4.85754 3.68314 6.55194 5.34551 8.54334 6.5851C10.5347 7.82469 12.7744 8.6112 15.1036 8.88891C14.8583 7.71967 15.0393 6.50132 15.6145 5.45423C16.1898 4.40714 17.1208 3.60056 18.2392 3.18046C19.3576 2.76037 20.5895 2.75452 21.7118 3.16397C22.8341 3.57341 23.7728 4.37111 24.358 5.41269C25.938 5.36554 27.5024 5.08623 29.0007 4.58268Z" stroke="white" stroke-width="2" stroke-linecap="round" stroke-linejoin="round"/>
</svg>
