<svg width="40" height="40" viewBox="0 0 40 40" fill="none" xmlns="http://www.w3.org/2000/svg">
<path d="M15 12C15 10.8954 15.8954 10 17 10H23C24.1046 10 25 10.8954 25 12V14H26.9897C26.9959 13.9999 27.0021 13.9999 27.0083 14H29C29.5523 14 30 14.4477 30 15C30 15.5523 29.5523 16 29 16H27.9311L27.0638 28.1425C26.989 29.1891 26.1182 30 25.0689 30H14.9311C13.8818 30 13.011 29.1891 12.9362 28.1425L12.0689 16H11C10.4477 16 10 15.5523 10 15C10 14.4477 10.4477 14 11 14H12.9917C12.9979 13.9999 13.0041 13.9999 13.0103 14H15V12ZM17 14H23V12H17V14ZM14.074 16L14.9311 28H25.0689L25.926 16H14.074ZM18 18C18.5523 18 19 18.4477 19 19V25C19 25.5523 18.5523 26 18 26C17.4477 26 17 25.5523 17 25V19C17 18.4477 17.4477 18 18 18ZM22 18C22.5523 18 23 18.4477 23 19V25C23 25.5523 22.5523 26 22 26C21.4477 26 21 25.5523 21 25V19C21 18.4477 21.4477 18 22 18Z" fill="#BBC2D0"/>
<rect x="0.5" y="0.5" width="39" height="39" rx="19.5" stroke="#BBC2D0"/>
</svg>
